HIERARCHY
ROOT Hip
{
	OFFSET 0 0 0
	CHANNELS 6 Xposition Yposition Zposition Zrotation Yrotation Xrotation
	JOINT ShoulderCenter
	{
		OFFSET 0 0.4363 0
		CHANNELS 3 Zrotation Yrotation Xrotation
		JOINT Head
		{
			OFFSET 0 0.1849 0
			CHANNELS 3 Zrotation Yrotation Xrotation
			End Site
			{
				OFFSET 0.0 0.0891 0.0
			}
		}
		JOINT ShoulderLeft
		{
			OFFSET -0.14 0 0
			CHANNELS 3 Zrotation Yrotation Xrotation
			JOINT ElbowLeft
			{
				OFFSET -0.25 0 0
				CHANNELS 3 Zrotation Yrotation Xrotation
				JOINT WristLeft
				{
					OFFSET -0.23 0 0
					CHANNELS 3 Zrotation Yrotation Xrotation
					End Site
					{
						OFFSET -0.0832 0.0 0.0
					}
				}
			}
		}
		JOINT ShoulderRight
		{
			OFFSET 0.14 0 0
			CHANNELS 3 Zrotation Yrotation Xrotation
			JOINT ElbowRight
			{
				OFFSET 0.25 0 0
				CHANNELS 3 Zrotation Yrotation Xrotation
				JOINT WristRight
				{
					OFFSET 0.23 0 0
					CHANNELS 3 Zrotation Yrotation Xrotation
					End Site
					{
						OFFSET 0.0832 0.0 0.0
					}
				}
			}
		}
	}
	JOINT HipLeft
	{
		OFFSET -0.0952 0 0
		CHANNELS 3 Zrotation Yrotation Xrotation
		JOINT KneeLeft
		{
			OFFSET 0 -0.3732 0
			CHANNELS 3 Zrotation Yrotation Xrotation
			JOINT AnkleLeft
			{
				OFFSET 0 -0.346 0
				CHANNELS 3 Zrotation Yrotation Xrotation
				End Site
				{
					OFFSET 0.0 0.0 0.0891
				}
			}
		}
	}
	JOINT HipRight
	{
		OFFSET 0.0952 0 0
		CHANNELS 3 Zrotation Yrotation Xrotation
		JOINT KneeRight
		{
			OFFSET 0 -0.3732 0
			CHANNELS 3 Zrotation Yrotation Xrotation
			JOINT AnkleRight
			{
				OFFSET 0 -0.346 0
				CHANNELS 3 Zrotation Yrotation Xrotation
				End Site
				{
					OFFSET 0.0 0.0 0.0891
				}
			}
		}
	}
}
MOTION
Frames: 34
Frame Time: 0.033333
7.27163e-05 -0.000749505 -0.00233126 0.497669 10.1278 11.6649 1.08279 -8.01016 -3.93377 0 0 0 69.6704 12.9418 22.3036 4.43538e-06 26.8195 4.56827e-06 0 0 0 -72.9958 -14.2349 54.3532 6.75627e-06 -77.6974 -1.85968e-05 0 0 0 3.51065 -41.5674 -88.8817 7.33876 -1.21792 -1.78432 0 0 0 4.72257 16.1803 -85.716 -4.89237 0.605337 -3.01133 0 0 0 
6.87658e-05 -0.000749452 -0.00234406 0.0144668 8.94959 13.3051 1.53004 -6.73932 -5.66193 0 0 -2.08441e-10 69.6687 12.9288 22.3095 -4.47877e-06 26.8281 -1.06815e-06 0 0 0 -73.028 -14.2001 54.3152 3.73835e-05 -77.7339 -3.89014e-05 0 0 0 3.05769 -38.3155 -89.0557 6.03351 -1.66661 -2.6265 0 0 0 3.57714 17.8544 -88.3888 -4.81122 0.496986 -2.13903 0 0 0 
6.64729e-05 -0.000749452 -0.00234406 -0.0722415 9.43637 13.3412 1.68147 -7.22175 -5.59112 2.66804e-08 1.98785e-16 -8.53774e-07 69.724 13.0415 17.2304 -1.0633e-05 28.253 -2.67605e-06 0 0 0 -72.941 -14.2716 54.2803 1.32311e-05 -77.747 -1.50526e-05 0 0 0 3.17571 -37.9321 -89.0432 6.19801 -1.64975 -2.65547 0 0 0 3.56142 17.6572 -88.6535 -5.16651 0.495741 -2.23076 0 0 0 
6.62954e-05 -0.000749452 -0.00234554 0.403776 11.0975 13.6172 1.81426 -8.95941 -5.58563 0 -4.16882e-10 0 69.4827 13.2839 15.7247 6.11451e-06 29.3944 -1.92682e-06 0 0 0 -73.0767 -14.5126 54.1949 3.98821e-05 -77.7565 -3.65427e-05 0 0 0 3.07394 -39.3562 -89.2581 5.94976 -1.75371 -2.64721 0 0 0 3.15307 15.7045 -89.3564 -4.9785 0.401899 -2.11557 -8.53774e-07 1.59028e-15 2.13443e-07 
6.59473e-05 -0.000749221 -0.00234637 0.248363 9.95971 13.7043 1.59101 -7.80925 -5.54727 0 0 0 69.6152 13.3654 14.7474 2.88862e-06 29.9415 2.53996e-06 0 0 0 -72.8994 -14.6146 54.057 2.9124e-05 -77.8722 -3.23113e-05 0 0 0 3.77916 -38.2687 -90.1943 6.20889 -1.21601 -1.93543 0 0 0 3.23419 16.8406 -89.3654 -5.24141 0.448246 -2.17706 0 0 0 
6.62954e-05 -0.000749452 -0.00234554 0.605823 11.0709 13.6573 1.47983 -8.93902 -5.44753 0 0 0 69.6007 13.4443 15.06 4.51449e-06 29.8695 -2.33034e-06 0 0 0 -72.9206 -14.7078 53.8474 -5.62037e-06 -78.0844 4.55814e-06 0 0 0 3.55365 -39.4276 -90.162 6.22276 -1.22884 -1.87182 0 0 0 3.01438 15.5236 -89.3928 -5.14061 0.386806 -2.10479 0 0 0 
6.59473e-05 -0.000749221 -0.00234801 0.546429 10.5904 13.952 1.44338 -8.43472 -5.72223 0 0 0 69.6078 13.4738 14.2404 1.92834e-06 30.5469 -1.24349e-06 0 0 0 -72.8002 -14.7507 53.8374 3.64837e-05 -78.2092 -3.84562e-05 0 0 0 3.79091 -38.5857 -90.6531 5.90951 -1.15261 -1.79182 0 0 0 2.91548 15.6512 -89.763 -4.77083 0.398902 -2.06958 0 0 0 
6.43497e-05 -0.000748971 -0.00234819 0.164467 9.72139 13.9304 1.62969 -7.4751 -5.69402 0 0 0 69.5131 13.7057 14.1471 -6.38735e-07 30.4116 -1.94311e-06 0 0 0 -72.8331 -14.8596 53.801 1.6351e-06 -78.3206 -1.33167e-06 0 0 0 3.2037 -37.3687 -90.0622 6.11969 -1.44567 -2.37313 0 0 0 2.64734 16.6793 -89.869 -4.73102 0.410612 -1.93555 0 0 0 
6.26383e-05 -0.000748971 -0.00234819 0.0863031 9.81571 13.9335 1.64023 -7.50413 -5.69792 0 0 0 69.5472 13.7655 7.3421 6.12633e-06 32.828 2.46098e-08 0 0 0 -72.7451 -14.9369 53.847 9.58327e-07 -78.3685 -1.84048e-05 0 0 0 3.5591 -37.2204 -90.6012 5.47011 -1.14704 -1.84846 0 0 0 2.82364 16.8796 -89.5071 -4.99163 0.527193 -2.49536 0 0 0 
6.26383e-05 -0.000748971 -0.00234383 0.228591 10.7749 13.4586 1.75533 -8.64554 -5.27324 0 0 0 69.6573 14.2159 6.96425 9.14538e-06 32.3872 8.7778e-07 0 0 0 -72.7965 -14.8507 53.6643 2.73099e-05 -78.4532 -2.67031e-05 0 0 0 3.91847 -38.6365 -90.085 6.17884 -1.53667 -2.40621 0 0 0 3.64652 15.4355 -88.4121 -5.45342 0.484801 -2.74199 0 0 0 
6.26383e-05 -0.000748971 -0.00234383 0.296504 10.7585 13.464 1.8432 -8.65603 -5.17005 0 0 0 69.4602 14.4843 -3.1175 -4.39544e-06 30.5982 -4.74295e-06 0 0 0 -72.8071 -14.9366 53.4641 3.48984e-05 -78.6891 -4.62733e-05 0 0 0 4.0234 -38.7294 -90.3754 6.12925 -1.41051 -2.19742 0 0 0 3.55444 15.4493 -88.5128 -5.4807 0.430449 -2.43956 0 0 1.06722e-07 
6.26383e-05 -0.000748971 -0.00234383 0.300069 10.757 13.4551 2.32018 -8.76396 -5.17188 0 0 0 69.3891 14.9343 -1.65098 1.04937e-06 28.751 -1.49379e-06 0 0 0 -73.1275 -14.9231 53.3576 -3.98378e-05 -78.7435 3.71079e-05 0 0 0 4.1935 -38.9452 -90.6213 6.33199 -1.19525 -1.86203 0 0 0 3.55412 15.4859 -88.4797 -5.53905 0.436022 -2.47633 0 0 0 
6.26383e-05 -0.000748561 -0.00234383 0.528911 10.365 13.4526 2.19698 -8.33925 -4.9841 0 0 0 69.6614 15.188 -2.51882 -2.23889e-06 28.6574 -5.7188e-07 0 0 0 -73.0872 -15.0833 53.9898 4.07144e-05 -79.0434 -3.35883e-05 0 0 0 3.49745 -38.7332 -90.3308 6.04278 -1.21822 -1.89253 8.53774e-07 -2.54444e-14 3.41509e-06 3.13592 15.5636 -88.4958 -4.88299 0.409599 -2.1652 0 0 0 
6.2598e-05 -0.000748561 -0.00234927 -0.0109911 7.63838 14.0517 2.38318 -5.51135 -5.60039 0 0 0 69.3899 15.2131 -1.03902 -8.47541e-06 28.5149 -2.15365e-06 0 0 0 -73.2275 -15.0868 53.947 5.77795e-05 -79.1301 -5.217e-05 0 0 0 5.70257 -35.7699 -92.7154 6.35321 -0.606944 -1.07278 0 8.53774e-07 0 3.94009 18.3642 -88.7461 -4.65224 0.593452 -2.42435 0 0 0 
6.1175e-05 -0.000748561 -0.00234938 -0.236734 7.28124 13.989 2.87883 -5.04808 -5.47973 0 0 0 69.511 15.3007 5.25816 -1.12839e-05 28.2692 -4.60243e-06 0 0 0 -73.4901 -15.0617 53.7538 2.49432e-05 -79.5295 -2.96415e-05 0 0 0 4.53723 -35.0516 -91.673 6.09067 -0.817861 -1.47346 0 0 0 3.25276 19.3329 -89.3225 -4.77137 0.535216 -2.05509 0 0 0 
5.75591e-05 -0.000747937 -0.0023496 -0.238683 7.69959 13.7763 2.76213 -5.47673 -5.36702 0 0 0 69.8867 15.2463 11.6873 -9.67721e-06 28.7071 -4.23889e-06 0 0 0 -73.1328 -14.8568 53.1227 5.44633e-05 -80.8575 -5.53718e-05 0 0 0 4.60662 -35.0685 -91.4128 6.1142 -0.864361 -1.55771 0 0 0 3.53081 19.0827 -89.0063 -5.19954 0.51224 -2.06664 0 0 0 
4.94151e-05 -0.000744455 -0.00236073 0.318435 9.66647 13.9251 2.39477 -7.55644 -6.58413 0 0 -8.53774e-07 70.4726 12.9769 12.2189 -1.29361e-05 30.391 -5.28298e-06 0 0 0 -72.8314 -13.5306 52.4988 7.18866e-05 -82.4275 -6.29624e-05 0 0 0 4.12502 -36.3331 -91.1414 5.99704 -0.986322 -1.68052 0 0 0 3.10322 17.2839 -89.1166 -5.51613 0.437171 -2.09209 0 0 0 
4.80983e-05 -0.000742584 -0.00236092 0.357225 10.071 13.836 2.57384 -8.12897 -6.71951 0 0 0 70.713 13.029 13.7681 2.58182e-06 28.3875 -1.10831e-06 0 0 0 -73.2128 -13.2239 52.5161 4.6956e-05 -82.3345 -5.01326e-05 0 0 0 4.23757 -36.1194 -90.8778 6.14408 -1.09749 -1.89661 0 0 0 3.46383 16.468 -88.8026 -5.13658 0.483934 -2.40647 2.54444e-14 8.53774e-07 3.41509e-06 
4.76914e-05 -0.000741809 -0.00236096 0.224234 9.62075 13.7566 2.61386 -7.73166 -6.78655 0 -3.33505e-09 0 70.9244 12.9132 10.8512 3.50129e-06 27.3037 8.50406e-07 0 0 0 -73.2403 -13.0425 52.4938 3.37608e-05 -82.3461 -3.86013e-05 0 -4.26887e-07 0 3.48608 -35.2238 -89.9019 5.53033 -1.00683 -1.76133 0 0 0 3.36245 16.9468 -88.7963 -5.15276 0.482745 -2.30434 0 0 0 
4.76914e-05 -0.000741809 -0.00236096 0.272048 9.60578 13.7054 2.4637 -7.85496 -6.90255 6.67011e-09 0 0 71.3211 12.6554 18.4935 -8.85274e-06 24.3103 -5.40019e-06 0 0 0 -73.1134 -13.2473 52.8708 -8.16741e-06 -82.0684 7.10838e-06 0 0 0 3.47439 -35.5052 -89.8833 6.00587 -1.03831 -1.83022 0 0 0 3.36981 16.5118 -88.6675 -4.84898 0.449565 -2.17158 8.53774e-07 -2.70347e-14 3.62854e-06 
4.76914e-05 -0.000741809 -0.00236096 0.0745576 8.80554 13.6689 2.4755 -7.18474 -6.88439 -4.66907e-08 0 0 71.3479 12.8489 10.2859 -5.83546e-07 27.3034 -1.41732e-07 0 0 0 -73.0565 -13.2629 52.7594 1.86446e-06 -81.6949 -1.06413e-05 0 0 0 3.71128 -34.6815 -89.9744 6.00453 -0.988706 -1.80274 8.53774e-07 -2.62396e-14 3.52182e-06 3.63968 17.7389 -88.3798 -5.15715 0.515361 -2.30125 0 0 0 
4.89326e-05 -0.000742101 -0.00235903 0.220435 8.88978 13.4158 2.2256 -7.36821 -6.60884 -4.66907e-08 -1.06722e-07 4.34841e-17 71.322 12.7454 10.2751 -2.1508e-05 27.5851 -7.03815e-06 0 0 0 -72.8968 -13.3166 52.9034 1.74023e-05 -81.3167 -2.84517e-05 0 0 0 3.43141 -35.4161 -89.7012 5.6291 -1.58364 -2.75455 0 0 0 3.59141 17.8147 -88.0775 -5.63648 0.513919 -2.37217 0 0 1.06722e-07 
5.5133e-05 -0.00074239 -0.00235352 0.534728 7.69704 12.7831 1.63762 -6.31235 -6.12331 6.67011e-09 0 0 71.1847 12.466 14.4263 -9.59249e-09 28.3473 -3.52474e-06 0 0 0 -73.1673 -13.1444 52.687 2.41328e-05 -81.0848 -3.41242e-05 0 0 0 2.66677 -35.0459 -88.7587 6.32162 -1.14281 -2.07825 0 0 0 3.72131 18.4516 -86.9879 -5.04698 0.615572 -2.57088 0 0 0 
5.5133e-05 -0.000742449 -0.00235323 0.505735 7.67726 12.7522 1.57139 -6.26514 -6.05818 0 0 0 71.1701 12.3702 23.6812 1.08683e-05 29.3641 2.84762e-06 0 0 0 -73.1316 -13.2936 52.8681 4.68386e-06 -80.7858 -8.46927e-06 0 0 0 2.81988 -35.0489 -89.0009 6.1892 -1.11846 -2.02303 0 0 0 3.74173 18.3209 -87.0628 -4.83135 0.585556 -2.43057 0 0 0 
5.58029e-05 -0.000742719 -0.00235122 0.325035 9.17656 12.9148 2.77474 -7.52353 -6.91285 0 0 0 70.3289 11.6359 20.1462 -5.64377e-06 32.3921 -1.63925e-06 0 0 0 -74.004 -12.9738 53.2849 3.92854e-05 -80.5627 -3.7771e-05 0 0 0 3.37689 -37.155 -89.2515 5.77699 -1.44767 -2.36497 0 0 0 3.98691 17.1516 -87.6408 -4.90709 0.461128 -2.11776 0 0 0 
5.57018e-05 -0.000742507 -0.00235323 -0.211722 7.91808 13.3316 3.28167 -6.01391 -7.52514 0 0 0 70.0415 11.3082 21.5196 -1.19216e-05 31.2185 -6.87652e-06 0 0 0 -74.4311 -12.8286 53.2644 8.2876e-06 -80.3589 -1.14683e-05 0 0 0 4.17974 -35.313 -90.1085 5.93192 -1.12483 -1.9917 0 0 0 4.19831 18.4078 -88.004 -4.89887 0.520393 -2.15926 0 0 0 
5.57018e-05 -0.000742507 -0.00235323 -0.411539 7.98271 13.5513 3.74215 -5.95963 -8.10444 0 6.67011e-09 0 69.7911 10.9864 20.1685 -9.67587e-06 30.7611 -6.20359e-06 0 0 0 -74.7241 -12.5425 53.4576 4.6272e-05 -79.9401 -4.32418e-05 0 0 0 4.35967 -35.0939 -90.124 5.57983 -1.10168 -1.94064 0 0 0 4.28841 18.6521 -88.2705 -5.34347 0.514753 -2.16907 0 0 0 
5.58029e-05 -0.000742719 -0.00235122 -0.369139 8.55339 13.3584 3.59524 -6.50784 -7.82069 -1.06722e-07 -1.06722e-07 -4.26887e-07 69.9038 10.9378 16.465 4.16325e-07 29.91 1.11204e-07 0 0 0 -74.4541 -12.6377 53.3602 2.84529e-05 -79.9308 -2.83014e-05 0 0 0 4.65746 -35.816 -90.3355 5.31078 -1.14298 -1.93468 0 0 0 4.46795 18.6189 -88.1192 -5.98396 0.522394 -2.32136 0 0 0 
6.37271e-05 -0.000745004 -0.00235118 0.672517 8.88106 13.3163 2.35571 -7.044 -7.37205 0 0 0 70.2063 11.2574 15.6789 -2.49728e-06 29.8753 -6.66232e-07 -3.41509e-06 2.13443e-07 -6.36111e-15 -74.3121 -12.7015 53.0558 6.51243e-06 -79.8679 -5.45179e-06 0 0 0 3.7417 -37.6788 -90.5042 6.10438 -1.17049 -1.8986 0 0 0 3.44171 17.5476 -88.201 -4.45523 0.572307 -2.45247 0 0 0 
6.51613e-05 -0.00074601 -0.0023478 0.902248 9.39126 12.9178 1.60224 -7.56226 -6.68296 0 0 0 70.8008 11.6338 13.5382 -5.72927e-06 28.7242 -3.22962e-06 0 0 0 -73.6873 -12.7011 52.5434 6.03774e-05 -79.9766 -6.40135e-05 0 0 0 3.78683 -38.5778 -90.6746 6.45644 -0.907635 -1.44211 0 0 0 3.44579 17.0898 -87.5933 -5.22071 0.442369 -2.09761 0 0 0 
6.52477e-05 -0.00074601 -0.0023476 0.793816 9.27273 12.9078 1.41688 -7.33707 -6.67151 0 0 0 70.9688 11.5884 14.7381 3.34801e-06 28.2321 8.41959e-07 0 0 0 -73.5806 -12.7755 52.5167 -8.54663e-06 -79.7971 -1.75724e-06 0 0 0 3.65179 -38.3403 -90.3046 6.28107 -1.19666 -1.90467 0 0 0 3.69434 16.985 -87.1851 -4.907 0.531623 -2.47378 0 0 0 
6.53047e-05 -0.00074601 -0.0023476 0.682625 9.29916 12.9125 1.02412 -7.18732 -6.44957 0 0 0 71.7429 12.3291 10.1694 1.58149e-05 27.7986 2.15454e-06 0 0 0 -73.3309 -13.094 52.425 3.10964e-05 -79.5695 -3.03386e-05 0 0 0 3.79734 -38.1884 -90.336 6.40216 -1.20532 -1.93867 0 0 0 3.79731 17.2081 -87.2048 -5.07219 0.534577 -2.47518 0 0 0 
6.64416e-05 -0.00074605 -0.00234684 0.756436 9.90079 12.8695 0.785892 -7.65133 -6.33762 0 1.66753e-09 0 72.0704 12.5583 11.4001 7.6777e-06 28.9821 1.98431e-06 0 0 0 -73.2415 -13.0148 52.2095 2.64511e-05 -79.1644 -2.62995e-05 0 0 0 1.99931 -36.4622 -87.3048 6.52767 -1.38799 -2.39888 0 0 0 3.75556 16.6109 -87.2216 -5.07811 0.505153 -2.46491 0 0 0 
6.76149e-05 -0.000746137 -0.00234568 0.79435 9.89382 12.7476 0.611208 -7.58103 -6.21014 0 0 0 72.1207 12.5572 11.2453 -7.43168e-06 28.8041 -1.90841e-06 0 0 0 -73.3402 -12.9274 52.1954 2.83444e-05 -79.1442 -3.22862e-05 0 0 0 1.96682 -36.2498 -87.3466 6.21922 -1.31162 -2.25911 -2.70347e-14 -8.53774e-07 3.62854e-06 3.79573 16.4472 -86.9906 -4.91845 0.537818 -2.62408 0 0 0 
